<mxfile host="app.diagrams.net" modified="2023-02-11T10:18:26.345Z" agent="5.0 (Windows NT 10.0; Win64; x64) AppleWebKit/537.36 (KHTML, like Gecko) Chrome/109.0.0.0 Safari/537.36 Edg/109.0.1518.78" etag="mhtbCmEBzsIb8u7PQD9s" version="20.8.16" type="github">
  <diagram name="第 1 页" id="YmK7Tv5QKxWqoX0kzFMZ">
    <mxGraphModel dx="1196" dy="581" grid="1" gridSize="10" guides="1" tooltips="1" connect="1" arrows="1" fold="1" page="1" pageScale="1" pageWidth="1654" pageHeight="2336" math="0" shadow="0">
      <root>
        <mxCell id="0" />
        <mxCell id="1" parent="0" />
        <mxCell id="VJptpk_sDXUc8g9za36g-1" value="" style="endArrow=classic;html=1;rounded=0;" edge="1" parent="1">
          <mxGeometry width="50" height="50" relative="1" as="geometry">
            <mxPoint x="180" y="340" as="sourcePoint" />
            <mxPoint x="990" y="340" as="targetPoint" />
          </mxGeometry>
        </mxCell>
        <mxCell id="VJptpk_sDXUc8g9za36g-2" value="" style="endArrow=none;html=1;rounded=0;" edge="1" parent="1">
          <mxGeometry width="50" height="50" relative="1" as="geometry">
            <mxPoint x="470" y="380" as="sourcePoint" />
            <mxPoint x="470" y="310" as="targetPoint" />
          </mxGeometry>
        </mxCell>
        <mxCell id="VJptpk_sDXUc8g9za36g-3" value="" style="endArrow=none;html=1;rounded=0;" edge="1" parent="1">
          <mxGeometry width="50" height="50" relative="1" as="geometry">
            <mxPoint x="650" y="380" as="sourcePoint" />
            <mxPoint x="650" y="310" as="targetPoint" />
          </mxGeometry>
        </mxCell>
        <mxCell id="VJptpk_sDXUc8g9za36g-4" value="&lt;font style=&quot;font-size: 18px;&quot;&gt;现在&lt;/font&gt;" style="text;strokeColor=none;align=center;fillColor=none;html=1;verticalAlign=middle;whiteSpace=wrap;rounded=0;" vertex="1" parent="1">
          <mxGeometry x="520" y="400" width="60" height="30" as="geometry" />
        </mxCell>
        <mxCell id="VJptpk_sDXUc8g9za36g-5" value="&lt;font style=&quot;font-size: 18px;&quot;&gt;过去&lt;/font&gt;" style="text;strokeColor=none;align=center;fillColor=none;html=1;verticalAlign=middle;whiteSpace=wrap;rounded=0;" vertex="1" parent="1">
          <mxGeometry x="270" y="400" width="60" height="30" as="geometry" />
        </mxCell>
        <mxCell id="VJptpk_sDXUc8g9za36g-6" value="&lt;font style=&quot;font-size: 18px;&quot;&gt;将来&lt;/font&gt;" style="text;strokeColor=none;align=center;fillColor=none;html=1;verticalAlign=middle;whiteSpace=wrap;rounded=0;" vertex="1" parent="1">
          <mxGeometry x="750" y="400" width="60" height="30" as="geometry" />
        </mxCell>
        <mxCell id="VJptpk_sDXUc8g9za36g-14" value="情态动词" style="text;strokeColor=none;align=center;fillColor=none;html=1;verticalAlign=middle;whiteSpace=wrap;rounded=0;fontSize=18;" vertex="1" parent="1">
          <mxGeometry x="240" y="710" width="80" height="30" as="geometry" />
        </mxCell>
        <mxCell id="VJptpk_sDXUc8g9za36g-15" value="" style="shape=cross;whiteSpace=wrap;html=1;fontSize=18;fillColor=#FFD966;" vertex="1" parent="1">
          <mxGeometry x="340" y="707.5" width="40" height="35" as="geometry" />
        </mxCell>
        <mxCell id="VJptpk_sDXUc8g9za36g-16" value="do" style="text;strokeColor=none;align=center;fillColor=none;html=1;verticalAlign=middle;whiteSpace=wrap;rounded=0;fontSize=18;" vertex="1" parent="1">
          <mxGeometry x="390" y="710" width="60" height="30" as="geometry" />
        </mxCell>
        <mxCell id="VJptpk_sDXUc8g9za36g-17" value="" style="shape=curlyBracket;whiteSpace=wrap;html=1;rounded=1;labelPosition=left;verticalLabelPosition=middle;align=right;verticalAlign=middle;strokeColor=#000000;fontSize=18;fillColor=#FFD966;" vertex="1" parent="1">
          <mxGeometry x="450" y="665" width="20" height="120" as="geometry" />
        </mxCell>
        <mxCell id="VJptpk_sDXUc8g9za36g-18" value="现在" style="text;strokeColor=none;align=center;fillColor=none;html=1;verticalAlign=middle;whiteSpace=wrap;rounded=0;fontSize=18;" vertex="1" parent="1">
          <mxGeometry x="480" y="650" width="60" height="30" as="geometry" />
        </mxCell>
        <mxCell id="VJptpk_sDXUc8g9za36g-19" value="将来" style="text;strokeColor=none;align=center;fillColor=none;html=1;verticalAlign=middle;whiteSpace=wrap;rounded=0;fontSize=18;" vertex="1" parent="1">
          <mxGeometry x="480" y="760" width="60" height="30" as="geometry" />
        </mxCell>
        <mxCell id="VJptpk_sDXUc8g9za36g-20" value="I can speak English." style="text;strokeColor=none;align=center;fillColor=none;html=1;verticalAlign=middle;whiteSpace=wrap;rounded=0;fontSize=18;" vertex="1" parent="1">
          <mxGeometry x="550" y="650" width="190" height="30" as="geometry" />
        </mxCell>
        <mxCell id="VJptpk_sDXUc8g9za36g-21" value="He may come." style="text;strokeColor=none;align=center;fillColor=none;html=1;verticalAlign=middle;whiteSpace=wrap;rounded=0;fontSize=18;" vertex="1" parent="1">
          <mxGeometry x="560" y="760" width="190" height="30" as="geometry" />
        </mxCell>
        <mxCell id="VJptpk_sDXUc8g9za36g-22" value="" style="endArrow=none;html=1;rounded=0;strokeColor=#FF3333;" edge="1" parent="1">
          <mxGeometry width="50" height="50" relative="1" as="geometry">
            <mxPoint x="410" y="380" as="sourcePoint" />
            <mxPoint x="410" y="310" as="targetPoint" />
          </mxGeometry>
        </mxCell>
        <mxCell id="VJptpk_sDXUc8g9za36g-25" value="" style="endArrow=classic;html=1;rounded=0;strokeColor=#00FF00;fontSize=18;" edge="1" parent="1">
          <mxGeometry width="50" height="50" relative="1" as="geometry">
            <mxPoint x="410" y="310" as="sourcePoint" />
            <mxPoint x="470" y="310" as="targetPoint" />
          </mxGeometry>
        </mxCell>
        <mxCell id="VJptpk_sDXUc8g9za36g-26" value="" style="endArrow=none;html=1;rounded=0;strokeColor=#00FF00;fontSize=18;" edge="1" parent="1">
          <mxGeometry width="50" height="50" relative="1" as="geometry">
            <mxPoint x="410" y="380" as="sourcePoint" />
            <mxPoint x="470" y="380" as="targetPoint" />
          </mxGeometry>
        </mxCell>
      </root>
    </mxGraphModel>
  </diagram>
</mxfile>
